<svg xmlns="http://www.w3.org/2000/svg" xmlns:xlink="http://www.w3.org/1999/xlink" version="1.1" x="0px" y="0px" viewBox="0 0 90 112.5" enable-background="new 0 0 90 90" xml:space="preserve"><g><path d="M72.9,33.5H57v-16c0-3.5-2.8-6.4-6.4-6.4H40c-3.5,0-6.4,2.8-6.4,6.4v16h-16c-3.5,0-6.4,2.8-6.4,6.4v10.7   c0,3.5,2.8,6.4,6.4,6.4h16v16c0,3.5,2.8,6.4,6.4,6.4h10.7c3.5,0,6.4-2.8,6.4-6.4v-16h16c3.5,0,6.4-2.8,6.4-6.4V39.9   C79.3,36.3,76.5,33.5,72.9,33.5z"/></g><text x="0" y="105" fill="#000000" font-size="5px" font-weight="bold" font-family="'Helvetica Neue', Helvetica, Arial-Unicode, Arial, Sans-serif">Created by Morten Marius</text><text x="0" y="110" fill="#000000" font-size="5px" font-weight="bold" font-family="'Helvetica Neue', Helvetica, Arial-Unicode, Arial, Sans-serif">from the Noun Project</text></svg>