<svg xmlns="http://www.w3.org/2000/svg" xmlns:xlink="http://www.w3.org/1999/xlink" version="1.1" x="0px" y="0px" viewBox="0 0 80 100" enable-background="new 0 0 80 80" xml:space="preserve"><g><path fill="#000000" d="M39.205,64.778l-1.654-1.124C25.099,55.2,21.847,38.19,30.302,25.739l7.493-11.036l1.654,1.124   c12.452,8.454,15.704,25.463,7.249,37.915L39.205,64.778z M38.81,20.33l-5.199,7.656c-3.495,5.147-4.776,11.349-3.608,17.461   c1.043,5.452,3.924,10.251,8.188,13.705l5.199-7.657C50.227,41.426,48.094,27.863,38.81,20.33z"/></g><g><path fill="#000000" d="M35.216,61.858c-1.738-11.06-0.374-19.873,0.722-26.955c0.961-6.21,1.721-11.114,0.234-15.449l3.783-1.297   c1.807,5.268,0.939,10.871-0.064,17.358c-1.108,7.161-2.364,15.279-0.724,25.722L35.216,61.858z"/></g><text x="0" y="95" fill="#000000" font-size="5px" font-weight="bold" font-family="'Helvetica Neue', Helvetica, Arial-Unicode, Arial, Sans-serif">Created by Yaroslav Samoylov</text><text x="0" y="100" fill="#000000" font-size="5px" font-weight="bold" font-family="'Helvetica Neue', Helvetica, Arial-Unicode, Arial, Sans-serif">from the Noun Project</text></svg>